<svg width="100" height="100" viewBox="0 0 100 100" fill="none" xmlns="http://www.w3.org/2000/svg">
<path d="M54.1668 22.9167C54.1668 14.875 47.6252 8.33333 39.5835 8.33333C31.1085 8.33333 26.0418 14.6875 26.0418 20.8333H34.3752C34.3752 19.1042 35.9918 16.6667 39.5835 16.6667C43.0293 16.6667 45.8335 19.4708 45.8335 22.9167C45.8335 26.3625 43.0293 29.1667 39.5835 29.1667H8.3335V37.5H39.5835C47.6252 37.5 54.1668 30.9583 54.1668 22.9167ZM64.5835 62.5H33.3335V70.8333H64.5835C68.0293 70.8333 70.8335 73.6375 70.8335 77.0833C70.8335 80.5292 68.0293 83.3333 64.5835 83.3333C60.9918 83.3333 59.3752 80.8958 59.3752 79.1667H51.0418C51.0418 85.3125 56.1085 91.6667 64.5835 91.6667C72.6252 91.6667 79.1668 85.125 79.1668 77.0833C79.1668 69.0417 72.6252 62.5 64.5835 62.5Z" fill="#FFDE59"/>
<path d="M75.0002 20.8333C65.8085 20.8333 58.3335 28.3083 58.3335 37.5H66.6668C66.6668 32.9042 70.4043 29.1667 75.0002 29.1667C79.596 29.1667 83.3335 32.9042 83.3335 37.5C83.3335 42.0958 79.596 45.8333 75.0002 45.8333H8.3335V54.1667H75.0002C84.1918 54.1667 91.6668 46.6917 91.6668 37.5C91.6668 28.3083 84.1918 20.8333 75.0002 20.8333ZM8.3335 62.5H25.0002V70.8333H8.3335V62.5Z" fill="#FFDE59"/>
</svg>
