<svg width="263" height="59" viewBox="0 0 263 59" fill="none" xmlns="http://www.w3.org/2000/svg">
<rect x="9.84363" y="5.72913" width="35.2072" height="5.05887" fill="#F1DB25"/>
<rect x="9.84363" y="23.3493" width="35.2072" height="5.05887" fill="#F1DB25"/>
<rect x="6.7384" y="32.1593" width="30.2446" height="5.05887" fill="white"/>
<rect x="17.8283" y="14.5392" width="21.6497" height="5.05887" fill="white"/>
<rect x="9.84363" y="40.9695" width="35.2072" height="5.05887" fill="#F1DB25"/>
<rect x="1.60941" y="14.5392" width="5.57278" height="43.7441" fill="white"/>
<rect x="39.4781" y="28.4081" width="5.57278" height="12.5613" fill="#F1DB25"/>
<rect x="9.84363" y="10.7879" width="5.57278" height="12.5613" fill="#F1DB25"/>
<path d="M76.9782 23.6758C76.9782 23.4023 76.9359 23.1582 76.8513 22.9434C76.7731 22.722 76.6266 22.5234 76.4118 22.3477C76.2035 22.1654 75.9072 21.9896 75.5231 21.8203C75.1455 21.6445 74.6572 21.4622 74.0583 21.2734C73.3942 21.0651 72.7757 20.8307 72.2028 20.5703C71.6299 20.3099 71.1253 20.0072 70.6891 19.6621C70.2595 19.3171 69.9242 18.9199 69.6833 18.4707C69.4424 18.015 69.322 17.4876 69.322 16.8887C69.322 16.3027 69.4457 15.7689 69.6931 15.2871C69.947 14.8053 70.305 14.3919 70.7673 14.0469C71.2295 13.6953 71.7731 13.4251 72.3981 13.2363C73.0296 13.0475 73.7263 12.9531 74.488 12.9531C75.5427 12.9531 76.4541 13.1452 77.2224 13.5293C77.9971 13.9134 78.596 14.4342 79.0192 15.0918C79.4424 15.7493 79.654 16.4883 79.654 17.3086H76.9782C76.9782 16.8659 76.8838 16.4753 76.695 16.1367C76.5127 15.7982 76.2328 15.5312 75.8552 15.3359C75.4841 15.1406 75.0153 15.043 74.4489 15.043C73.902 15.043 73.4463 15.1243 73.0817 15.2871C72.7237 15.4499 72.4535 15.6712 72.2712 15.9512C72.0954 16.2311 72.0075 16.5436 72.0075 16.8887C72.0075 17.1491 72.0694 17.3835 72.1931 17.5918C72.3168 17.7936 72.5023 17.9857 72.7497 18.168C72.9971 18.3438 73.3031 18.5098 73.6677 18.666C74.0388 18.8158 74.4684 18.9655 74.9567 19.1152C75.738 19.3496 76.4216 19.61 77.0075 19.8965C77.6 20.1829 78.0915 20.5085 78.4821 20.873C78.8793 21.2376 79.1755 21.6478 79.3708 22.1035C79.5726 22.5592 79.6735 23.0768 79.6735 23.6562C79.6735 24.2682 79.5531 24.8151 79.3122 25.2969C79.0713 25.7786 78.7263 26.1888 78.277 26.5273C77.8278 26.8659 77.2875 27.123 76.6559 27.2988C76.0309 27.4746 75.3311 27.5625 74.5563 27.5625C73.8662 27.5625 73.1826 27.4714 72.5056 27.2891C71.835 27.1003 71.2263 26.8203 70.6794 26.4492C70.1325 26.0716 69.6963 25.5964 69.3708 25.0234C69.0453 24.444 68.8825 23.7669 68.8825 22.9922H71.5778C71.5778 23.4414 71.6494 23.8255 71.7927 24.1445C71.9424 24.457 72.1507 24.7142 72.4177 24.916C72.6911 25.1113 73.0101 25.2546 73.3747 25.3457C73.7393 25.4368 74.1332 25.4824 74.5563 25.4824C75.1032 25.4824 75.5524 25.4076 75.904 25.2578C76.2621 25.1016 76.529 24.8867 76.7048 24.6133C76.8871 24.3398 76.9782 24.0273 76.9782 23.6758ZM93.5395 13.1484V27.3672H90.8638V13.1484H93.5395ZM97.9536 13.1484V15.2676H86.4985V13.1484H97.9536ZM105.433 13.1484H110.599C111.68 13.1484 112.607 13.3112 113.382 13.6367C114.157 13.9622 114.753 14.444 115.169 15.082C115.586 15.7201 115.794 16.5046 115.794 17.4355C115.794 18.1712 115.664 18.8092 115.404 19.3496C115.143 19.89 114.775 20.3424 114.3 20.707C113.831 21.0716 113.278 21.3581 112.64 21.5664L111.8 21.9961H107.24L107.22 19.877H110.628C111.182 19.877 111.641 19.7793 112.005 19.584C112.37 19.3887 112.643 19.1185 112.825 18.7734C113.014 18.4284 113.109 18.0345 113.109 17.5918C113.109 17.1165 113.018 16.7064 112.835 16.3613C112.653 16.0098 112.376 15.7396 112.005 15.5508C111.634 15.362 111.165 15.2676 110.599 15.2676H108.118V27.3672H105.433V13.1484ZM113.46 27.3672L110.169 21L113.011 20.9902L116.341 27.2305V27.3672H113.46ZM127.19 13.1484V27.3672H124.504V13.1484H127.19ZM141.27 24.584L144.815 13.1484H147.794L142.774 27.3672H140.792L141.27 24.584ZM137.999 13.1484L141.524 24.584L142.032 27.3672H140.03L135.03 13.1484H137.999ZM164.863 25.2578V27.3672H157.304V25.2578H164.863ZM158.125 13.1484V27.3672H155.439V13.1484H158.125ZM163.877 19.0176V21.0781H157.304V19.0176H163.877ZM164.834 13.1484V15.2676H157.304V13.1484H164.834ZM195.495 13.1484V27.3672H192.8L186.755 17.5039V27.3672H184.07V13.1484H186.755L192.82 23.0215V13.1484H195.495ZM223.837 13.1484V27.3672H221.152V13.1484H223.837ZM229.57 19.291V21.4102H223.134V19.291H229.57ZM230.322 13.1484V15.2676H223.134V13.1484H230.322ZM241.19 13.1484V27.3672H238.504V13.1484H241.19ZM252.409 13.1484L255.251 18.2168L258.102 13.1484H261.188L256.97 20.1992L261.296 27.3672H258.181L255.251 22.2012L252.331 27.3672H249.206L253.532 20.1992L249.313 13.1484H252.409Z" fill="white"/>
<path d="M71.7682 47.3672H70.3718V41.7666H68.2673V40.3652H73.8679V41.7666H71.7682V47.3672ZM80.7099 47.3672H75.91V40.3652H80.7099V41.7666H77.3114V43.168H79.6112V44.5693H77.3114V45.9658H80.7099V47.3672ZM88.4063 46.6494C88.0808 46.9294 87.7162 47.1442 87.3126 47.2939C86.9089 47.4437 86.4906 47.5186 86.0577 47.5186C85.7257 47.5186 85.405 47.4746 85.0958 47.3867C84.7898 47.3021 84.5017 47.1816 84.2315 47.0254C83.9646 46.8659 83.7205 46.6755 83.4991 46.4541C83.2778 46.2327 83.0873 45.9886 82.9278 45.7217C82.7716 45.4515 82.6495 45.1634 82.5616 44.8574C82.477 44.5482 82.4347 44.2275 82.4347 43.8955C82.4347 43.5635 82.477 43.2428 82.5616 42.9336C82.6495 42.6243 82.7716 42.3363 82.9278 42.0693C83.0873 41.7992 83.2778 41.5534 83.4991 41.332C83.7205 41.1107 83.9646 40.9219 84.2315 40.7656C84.5017 40.6061 84.7898 40.484 85.0958 40.3994C85.405 40.3115 85.7257 40.2676 86.0577 40.2676C86.4906 40.2676 86.9089 40.3424 87.3126 40.4922C87.7162 40.6387 88.0808 40.8535 88.4063 41.1367L87.6641 42.3574C87.4591 42.1361 87.2166 41.9668 86.9366 41.8496C86.6567 41.7292 86.3637 41.6689 86.0577 41.6689C85.7485 41.6689 85.4587 41.7275 85.1886 41.8447C84.9184 41.9619 84.6824 42.1214 84.4806 42.3232C84.2787 42.5218 84.1192 42.7578 84.002 43.0312C83.8849 43.3014 83.8263 43.5895 83.8263 43.8955C83.8263 44.2015 83.8849 44.4896 84.002 44.7598C84.1192 45.0267 84.2787 45.2611 84.4806 45.4629C84.6824 45.6647 84.9184 45.8242 85.1886 45.9414C85.4587 46.0586 85.7485 46.1172 86.0577 46.1172C86.3637 46.1172 86.6567 46.0586 86.9366 45.9414C87.2166 45.821 87.4591 45.6501 87.6641 45.4287L88.4063 46.6494ZM91.9231 47.3672H90.5218V40.3652H91.9231V43.168H94.721V40.3652H96.1224V47.3672H94.721V44.5693H91.9231V47.3672ZM104.327 47.3672H102.828L100.127 42.7578V47.3672H98.7261V40.3652H100.225L102.925 44.9795V40.3652H104.327V47.3672ZM108.332 47.3672H106.93V40.3652H108.332V47.3672ZM116.526 46.6494C116.201 46.9294 115.836 47.1442 115.433 47.2939C115.029 47.4437 114.611 47.5186 114.178 47.5186C113.846 47.5186 113.525 47.4746 113.216 47.3867C112.91 47.3021 112.622 47.1816 112.351 47.0254C112.085 46.8659 111.84 46.6755 111.619 46.4541C111.398 46.2327 111.207 45.9886 111.048 45.7217C110.891 45.4515 110.769 45.1634 110.682 44.8574C110.597 44.5482 110.555 44.2275 110.555 43.8955C110.555 43.5635 110.597 43.2428 110.682 42.9336C110.769 42.6243 110.891 42.3363 111.048 42.0693C111.207 41.7992 111.398 41.5534 111.619 41.332C111.84 41.1107 112.085 40.9219 112.351 40.7656C112.622 40.6061 112.91 40.484 113.216 40.3994C113.525 40.3115 113.846 40.2676 114.178 40.2676C114.611 40.2676 115.029 40.3424 115.433 40.4922C115.836 40.6387 116.201 40.8535 116.526 41.1367L115.784 42.3574C115.579 42.1361 115.336 41.9668 115.057 41.8496C114.777 41.7292 114.484 41.6689 114.178 41.6689C113.868 41.6689 113.579 41.7275 113.308 41.8447C113.038 41.9619 112.802 42.1214 112.6 42.3232C112.399 42.5218 112.239 42.7578 112.122 43.0312C112.005 43.3014 111.946 43.5895 111.946 43.8955C111.946 44.2015 112.005 44.4896 112.122 44.7598C112.239 45.0267 112.399 45.2611 112.6 45.4629C112.802 45.6647 113.038 45.8242 113.308 45.9414C113.579 46.0586 113.868 46.1172 114.178 46.1172C114.484 46.1172 114.777 46.0586 115.057 45.9414C115.336 45.821 115.579 45.6501 115.784 45.4287L116.526 46.6494ZM122.763 44.5693V43.168C122.763 42.9759 122.725 42.7952 122.65 42.626C122.579 42.4535 122.48 42.3037 122.353 42.1768C122.226 42.0498 122.076 41.9505 121.903 41.8789C121.734 41.804 121.553 41.7666 121.361 41.7666C121.169 41.7666 120.987 41.804 120.815 41.8789C120.645 41.9505 120.497 42.0498 120.37 42.1768C120.243 42.3037 120.142 42.4535 120.067 42.626C119.996 42.7952 119.96 42.9759 119.96 43.168V44.5693H122.763ZM124.164 47.3672H122.763V45.9658H119.96V47.3672H118.564V43.168C118.564 42.7806 118.637 42.4176 118.783 42.0791C118.93 41.7373 119.128 41.4395 119.379 41.1855C119.633 40.9316 119.929 40.7314 120.268 40.585C120.609 40.4385 120.974 40.3652 121.361 40.3652C121.749 40.3652 122.112 40.4385 122.45 40.585C122.792 40.7314 123.09 40.9316 123.344 41.1855C123.598 41.4395 123.798 41.7373 123.944 42.0791C124.091 42.4176 124.164 42.7806 124.164 43.168V47.3672ZM131.582 47.3672H126.68V40.3652H128.081V45.9658H131.582V47.3672ZM137.307 42.4648C137.307 42.1751 137.363 41.9033 137.473 41.6494C137.584 41.3955 137.734 41.1742 137.923 40.9854C138.115 40.7933 138.338 40.6419 138.591 40.5312C138.845 40.4206 139.117 40.3652 139.407 40.3652H142.62V41.7666H139.407C139.309 41.7666 139.218 41.7845 139.133 41.8203C139.049 41.8561 138.974 41.9066 138.909 41.9717C138.847 42.0335 138.798 42.1068 138.762 42.1914C138.727 42.276 138.709 42.3672 138.709 42.4648C138.709 42.5625 138.727 42.6553 138.762 42.7432C138.798 42.8278 138.847 42.9027 138.909 42.9678C138.974 43.0296 139.049 43.0785 139.133 43.1143C139.218 43.1501 139.309 43.168 139.407 43.168H140.808C141.098 43.168 141.37 43.2233 141.624 43.334C141.881 43.4414 142.104 43.5911 142.293 43.7832C142.485 43.972 142.634 44.195 142.742 44.4521C142.853 44.7061 142.908 44.9779 142.908 45.2676C142.908 45.5573 142.853 45.8291 142.742 46.083C142.634 46.3369 142.485 46.5599 142.293 46.752C142.104 46.9408 141.881 47.0905 141.624 47.2012C141.37 47.3118 141.098 47.3672 140.808 47.3672H137.698V45.9658H140.808C140.906 45.9658 140.997 45.9479 141.082 45.9121C141.166 45.8763 141.24 45.8275 141.301 45.7656C141.367 45.7005 141.417 45.6257 141.453 45.541C141.489 45.4564 141.507 45.3652 141.507 45.2676C141.507 45.1699 141.489 45.0788 141.453 44.9941C141.417 44.9095 141.367 44.8363 141.301 44.7744C141.24 44.7093 141.166 44.6589 141.082 44.623C140.997 44.5872 140.906 44.5693 140.808 44.5693H139.407C139.117 44.5693 138.845 44.514 138.591 44.4033C138.338 44.2926 138.115 44.1429 137.923 43.9541C137.734 43.762 137.584 43.5391 137.473 43.2852C137.363 43.028 137.307 42.7546 137.307 42.4648ZM149.931 47.3672H145.131V40.3652H149.931V41.7666H146.532V43.168H148.832V44.5693H146.532V45.9658H149.931V47.3672ZM153.613 41.7666V44.5693H155.015C155.207 44.5693 155.387 44.5335 155.557 44.4619C155.726 44.387 155.874 44.2861 156.001 44.1592C156.128 44.0322 156.227 43.8841 156.299 43.7148C156.374 43.5423 156.411 43.36 156.411 43.168C156.411 42.9759 156.374 42.7952 156.299 42.626C156.227 42.4535 156.128 42.3037 156.001 42.1768C155.874 42.0498 155.726 41.9505 155.557 41.8789C155.387 41.804 155.207 41.7666 155.015 41.7666H153.613ZM153.613 47.3672H152.212V40.3652H155.015C155.272 40.3652 155.519 40.3994 155.757 40.4678C155.995 40.5329 156.216 40.6273 156.421 40.751C156.629 40.8714 156.818 41.0179 156.987 41.1904C157.16 41.3597 157.306 41.5485 157.427 41.7568C157.551 41.9652 157.645 42.1882 157.71 42.4258C157.778 42.6634 157.813 42.9108 157.813 43.168C157.813 43.4089 157.782 43.6432 157.72 43.8711C157.661 44.099 157.575 44.3154 157.461 44.5205C157.35 44.7256 157.214 44.9144 157.051 45.0869C156.888 45.2594 156.706 45.4092 156.504 45.5361L157.28 47.3672H155.791L155.181 45.9561L153.613 45.9658V47.3672ZM165.319 40.3652L163.019 47.3672H161.617L159.327 40.3652H160.919L162.316 45.0381L163.717 40.3652H165.319ZM168.694 47.3672H167.292V40.3652H168.694V47.3672ZM176.888 46.6494C176.563 46.9294 176.198 47.1442 175.795 47.2939C175.391 47.4437 174.973 47.5186 174.54 47.5186C174.208 47.5186 173.887 47.4746 173.578 47.3867C173.272 47.3021 172.984 47.1816 172.714 47.0254C172.447 46.8659 172.202 46.6755 171.981 46.4541C171.76 46.2327 171.569 45.9886 171.41 45.7217C171.254 45.4515 171.132 45.1634 171.044 44.8574C170.959 44.5482 170.917 44.2275 170.917 43.8955C170.917 43.5635 170.959 43.2428 171.044 42.9336C171.132 42.6243 171.254 42.3363 171.41 42.0693C171.569 41.7992 171.76 41.5534 171.981 41.332C172.202 41.1107 172.447 40.9219 172.714 40.7656C172.984 40.6061 173.272 40.484 173.578 40.3994C173.887 40.3115 174.208 40.2676 174.54 40.2676C174.973 40.2676 175.391 40.3424 175.795 40.4922C176.198 40.6387 176.563 40.8535 176.888 41.1367L176.146 42.3574C175.941 42.1361 175.699 41.9668 175.419 41.8496C175.139 41.7292 174.846 41.6689 174.54 41.6689C174.23 41.6689 173.941 41.7275 173.671 41.8447C173.4 41.9619 173.164 42.1214 172.963 42.3232C172.761 42.5218 172.601 42.7578 172.484 43.0312C172.367 43.3014 172.308 43.5895 172.308 43.8955C172.308 44.2015 172.367 44.4896 172.484 44.7598C172.601 45.0267 172.761 45.2611 172.963 45.4629C173.164 45.6647 173.4 45.8242 173.671 45.9414C173.941 46.0586 174.23 46.1172 174.54 46.1172C174.846 46.1172 175.139 46.0586 175.419 45.9414C175.699 45.821 175.941 45.6501 176.146 45.4287L176.888 46.6494ZM183.804 47.3672H179.004V40.3652H183.804V41.7666H180.405V43.168H182.705V44.5693H180.405V45.9658H183.804V47.3672ZM185.597 42.4648C185.597 42.1751 185.652 41.9033 185.763 41.6494C185.873 41.3955 186.023 41.1742 186.212 40.9854C186.404 40.7933 186.627 40.6419 186.881 40.5312C187.135 40.4206 187.407 40.3652 187.696 40.3652H190.909V41.7666H187.696C187.599 41.7666 187.508 41.7845 187.423 41.8203C187.338 41.8561 187.263 41.9066 187.198 41.9717C187.136 42.0335 187.088 42.1068 187.052 42.1914C187.016 42.276 186.998 42.3672 186.998 42.4648C186.998 42.5625 187.016 42.6553 187.052 42.7432C187.088 42.8278 187.136 42.9027 187.198 42.9678C187.263 43.0296 187.338 43.0785 187.423 43.1143C187.508 43.1501 187.599 43.168 187.696 43.168H189.098C189.387 43.168 189.659 43.2233 189.913 43.334C190.17 43.4414 190.393 43.5911 190.582 43.7832C190.774 43.972 190.924 44.195 191.031 44.4521C191.142 44.7061 191.197 44.9779 191.197 45.2676C191.197 45.5573 191.142 45.8291 191.031 46.083C190.924 46.3369 190.774 46.5599 190.582 46.752C190.393 46.9408 190.17 47.0905 189.913 47.2012C189.659 47.3118 189.387 47.3672 189.098 47.3672H185.987V45.9658H189.098C189.195 45.9658 189.287 45.9479 189.371 45.9121C189.456 45.8763 189.529 45.8275 189.591 45.7656C189.656 45.7005 189.706 45.6257 189.742 45.541C189.778 45.4564 189.796 45.3652 189.796 45.2676C189.796 45.1699 189.778 45.0788 189.742 44.9941C189.706 44.9095 189.656 44.8363 189.591 44.7744C189.529 44.7093 189.456 44.6589 189.371 44.623C189.287 44.5872 189.195 44.5693 189.098 44.5693H187.696C187.407 44.5693 187.135 44.514 186.881 44.4033C186.627 44.2926 186.404 44.1429 186.212 43.9541C186.023 43.762 185.873 43.5391 185.763 43.2852C185.652 43.028 185.597 42.7546 185.597 42.4648Z" fill="white"/>
</svg>
