<svg width="100" height="100" viewBox="0 0 100 100" fill="none" xmlns="http://www.w3.org/2000/svg">
<path d="M75.0002 8.33331H29.1668C24.571 8.33331 20.8335 12.0708 20.8335 16.6666V29.1666C20.8335 33.7625 24.571 37.5 29.1668 37.5H75.0002C79.596 37.5 83.3335 33.7625 83.3335 29.1666V16.6666C83.3335 12.0708 79.596 8.33331 75.0002 8.33331ZM29.1668 29.1666V16.6666H75.0002L75.0085 29.1666H29.1668Z" fill="#FFDE59"/>
<path d="M54.1668 62.5V54.1666C54.1668 49.5708 50.4293 45.8333 45.8335 45.8333H16.6668V20.8333C12.071 20.8333 8.3335 24.5708 8.3335 29.1666V45.8333C8.3335 50.4291 12.071 54.1666 16.6668 54.1666H45.8335V62.5C44.7284 62.5 43.6686 62.939 42.8872 63.7204C42.1058 64.5018 41.6668 65.5616 41.6668 66.6666V87.5C41.6668 88.6051 42.1058 89.6649 42.8872 90.4463C43.6686 91.2277 44.7284 91.6667 45.8335 91.6667H54.1668C55.2719 91.6667 56.3317 91.2277 57.1131 90.4463C57.8945 89.6649 58.3335 88.6051 58.3335 87.5V66.6666C58.3335 65.5616 57.8945 64.5018 57.1131 63.7204C56.3317 62.939 55.2719 62.5 54.1668 62.5Z" fill="#FFDE59"/>
</svg>
